<?xml version="1.0" encoding="UTF-8"?>
<svg xmlns="http://www.w3.org/2000/svg" width="300" height="150" xmlns:xlink="http://www.w3.org/1999/xlink" version="1.1" viewBox="0 0 300 150">
  <defs>
    <style>
      .cls-1 {
        fill: none;
      }

      .cls-2 {
        fill: #1f2041;
      }

      .cls-3 {
        clip-path: url(#clippath);
      }
    </style>
    <clipPath id="clippath">
      <rect class="cls-1" x="12.6" y="28.7" width="274.8" height="92.5"/>
    </clipPath>
  </defs>
  <!-- Generator: Adobe Illustrator 28.6.0, SVG Export Plug-In . SVG Version: 1.2.0 Build 709)  -->
  <g>
    <g id="Layer_1">
      <g class="cls-3">
        <g>
          <path class="cls-2" d="M39.5,35.1h21.9c.3,0,.6.2.7.5l26.2,83.2c.1.5-.2,1-.7,1h-18.7c-.3,0-.6-.2-.7-.5l-11-42.3c-2.4-8.5-4.6-18.5-6.9-27.3h-.5c-2,8.9-4.3,18.8-6.7,27.3l-11,42.3c0,.3-.4.5-.7.5H13.4c-.5,0-.8-.5-.7-1l26.2-83.1c0-.3.4-.5.7-.5h0ZM30.7,84.7h39.4c.4,0,.7.3.7.7v13.4c0,.4-.3.7-.7.7H30.7c-.4,0-.7-.3-.7-.7v-13.4c0-.4.3-.7.7-.7Z"/>
          <path class="cls-2" d="M93.9,96.3v-25.3c0-.4-.3-.7-.7-.7h-6.5c-.6,0-1-.7-.6-1.2l25.6-29.4c.4-.5,1.3-.2,1.3.5v14.4c0,.4.3.7.7.7h14c.4,0,.7.3.7.7v13.5c0,.4-.3.7-.7.7h-14c-.4,0-.7.3-.7.7v25.1c0,7.3,3.3,10.2,8.4,10.2s3.8-.4,5.4-1c.4-.1.8.1.9.5l2.7,12.4c0,.4-.1.7-.5.9-3.4,1-7.8,2.1-13.7,2.1-16,0-22.3-10-22.3-25h0Z"/>
          <path class="cls-2" d="M141.1,99.7V29.5c0-.4.3-.7.7-.7h17.7c.4,0,.7.3.7.7v71c0,4.1,1.9,5.4,3.5,5.4s1,0,1.6-.1c.4,0,.8.2.8.6l2.1,12.7c0,.3-.1.7-.5.8-2.1.8-5.1,1.4-9.1,1.4-13.1,0-17.6-8.5-17.6-21.6Z"/>
          <path class="cls-2" d="M172.8,101.8c0-13.4,10.6-20.8,35.7-23.5.4,0,.7-.4.7-.8-.6-5.2-3.5-8.6-10.1-8.6s-10.4,2.1-16.4,5.5c-.4.2-.8,0-1-.3l-6.1-11.3c-.2-.3,0-.8.3-1,8-4.8,17.1-8.1,27-8.1,16.5,0,25.7,9.4,25.7,29.1v36.1c0,.4-.3.7-.7.7h-14.3c-.4,0-.6-.2-.7-.6l-1.3-6h-.5c-5.4,4.8-11.5,8.2-18.8,8.2-11.8,0-19.3-8.6-19.3-19.4h0ZM209.2,100.7v-10.1c0-.4-.4-.8-.8-.7-12.9,1.9-17.2,5.7-17.2,10.5s2.9,6.2,7.4,6.2,7.1-2,10.4-5.3c.1-.1.2-.3.2-.5Z"/>
          <path class="cls-2" d="M236.5,111.7l7.8-10.7c.2-.3.7-.4,1-.2,5.6,4.1,10.8,6.3,16.1,6.3s8.2-2.2,8.2-5.5-6.4-6.2-13-8.8c-7.9-3.1-17.1-8.3-17.1-18.9s9.8-20.2,24.7-20.2,16.7,3.7,22.2,7.7c.3.2.4.7.1,1l-7.7,10.3c-.2.3-.7.4-1,.2-4.4-3.1-8.7-5.1-13-5.1s-7.4,1.9-7.4,5.1,6,5.7,12.7,8.1c8.2,3,17.4,7.6,17.4,19.4s-9.2,20.8-26.5,20.8-17.7-3.5-24.2-8.6c-.3-.2-.4-.7-.1-1h0Z"/>
        </g>
      </g>
    </g>
  </g>
</svg>